<?xml version="1.0" standalone="no"?>
<!DOCTYPE svg PUBLIC "-//W3C//DTD SVG 20010904//EN"
 "http://www.w3.org/TR/2001/REC-SVG-20010904/DTD/svg10.dtd">
<svg version="1.0" xmlns="http://www.w3.org/2000/svg"
 width="375.000000pt" height="375.000000pt" viewBox="0 0 375.000000 375.000000"
 preserveAspectRatio="xMidYMid meet">
<metadata>
Created by potrace 1.11, written by Peter Selinger 2001-2013
</metadata>
<g transform="translate(0.000000,375.000000) scale(0.100000,-0.100000)"
fill="#000000" stroke="none">
<path d="M540 3526 c-161 -44 -303 -188 -339 -347 -7 -28 -11 -500 -11 -1332
0 -1279 0 -1288 21 -1350 49 -148 159 -257 306 -306 60 -20 83 -21 529 -21
l467 0 -47 31 c-58 39 -90 84 -118 169 -22 63 -22 81 -26 593 l-3 527 -135 0
-134 0 0 100 0 100 135 0 135 0 0 185 0 185 130 0 130 0 0 -185 0 -185 140 0
140 0 0 -100 0 -100 -140 0 -140 0 0 -500 c0 -552 1 -558 63 -602 25 -18 45
-22 102 -22 38 -1 82 3 98 7 l27 7 0 -105 0 -105 50 0 50 0 0 1015 0 1015 408
0 c364 0 417 -2 502 -20 186 -38 334 -138 407 -275 88 -168 93 -406 11 -573
-46 -93 -149 -196 -250 -248 l-78 -40 201 -364 c110 -201 204 -368 208 -373
10 -10 65 60 96 121 57 114 55 56 55 1438 0 1212 -1 1274 -19 1326 -59 172
-164 280 -318 328 -64 20 -89 20 -1337 19 -970 0 -1282 -3 -1316 -13z"/>
<path d="M2239 1973 c0 -10 0 -723 0 -745 1 -17 19 -18 234 -18 128 0 260 5
292 11 227 42 346 211 314 448 -22 155 -113 254 -272 297 -56 15 -566 21 -568
7z"/>
<path d="M2230 580 l0 -410 455 0 c368 0 455 3 455 13 0 7 -40 87 -88 178 -49
90 -113 211 -144 269 -31 58 -75 139 -97 180 -23 41 -53 99 -68 128 l-27 52
-243 0 -243 0 0 -410z"/>
</g>
</svg>
